<?xml version="1.0" standalone="no"?>
<!DOCTYPE svg PUBLIC "-//W3C//DTD SVG 20010904//EN"
 "http://www.w3.org/TR/2001/REC-SVG-20010904/DTD/svg10.dtd">
<svg version="1.0" xmlns="http://www.w3.org/2000/svg"
 width="1024.000000pt" height="1024.000000pt" viewBox="0 0 1024.000000 1024.000000"
 preserveAspectRatio="xMidYMid meet">
<g transform="translate(0.000000,1024.000000) scale(0.100000,-0.100000)"
fill="#000000" stroke="none">
<path d="M2271 8215 c-185 -52 -320 -202 -367 -410 -1 -5 -6 -30 -10 -55 -10
-51 -12 -5129 -2 -5175 9 -47 28 -115 40 -144 6 -14 12 -32 14 -40 1 -8 6 -17
11 -20 4 -3 9 -13 11 -21 2 -8 8 -16 13 -18 5 -2 9 -8 9 -13 0 -20 70 -94 132
-142 107 -81 275 -112 432 -80 122 25 224 89 310 193 46 56 98 193 113 300 9
65 10 5101 0 5144 -41 186 -81 270 -167 354 -47 46 -61 56 -135 92 -78 38 -98
42 -235 46 -81 3 -131 -1 -169 -11z"/>
<path d="M7728 8155 c-2 -2 -21 -5 -43 -8 -22 -2 -51 -9 -65 -15 -14 -5 -27
-10 -30 -9 -13 0 -98 -44 -120 -62 -144 -121 -208 -259 -224 -478 -3 -35 -8
-67 -11 -73 -3 -5 -2 -10 4 -10 5 0 8 -10 6 -21 -6 -31 -7 -91 -2 -114 2 -11
0 -26 -6 -32 -6 -9 -6 -18 2 -27 8 -10 9 -16 1 -21 -7 -4 -7 -12 0 -26 7 -13
7 -25 0 -38 -7 -14 -7 -22 0 -26 8 -5 7 -11 -1 -21 -9 -11 -9 -17 0 -28 8 -10
9 -16 1 -21 -7 -4 -7 -12 0 -26 8 -13 7 -25 0 -40 -8 -15 -8 -24 0 -34 8 -9 8
-15 0 -20 -6 -4 -7 -12 -3 -18 10 -15 10 -38 -1 -55 -4 -7 -3 -19 4 -27 7 -9
8 -15 0 -20 -7 -4 -7 -12 0 -26 8 -13 7 -25 0 -40 -8 -15 -8 -24 0 -34 8 -9 8
-15 0 -20 -8 -5 -8 -10 0 -20 8 -10 8 -15 0 -20 -8 -5 -8 -10 0 -20 8 -10 8
-15 0 -20 -6 -4 -7 -12 -3 -18 10 -15 10 -38 -1 -55 -4 -7 -3 -19 4 -27 7 -9
8 -15 0 -20 -7 -4 -7 -12 0 -26 8 -13 7 -25 0 -40 -8 -15 -8 -24 0 -34 8 -9 8
-15 0 -20 -6 -4 -7 -12 -3 -18 10 -15 10 -38 -1 -55 -4 -7 -3 -19 4 -27 7 -9
8 -15 0 -20 -7 -4 -7 -12 0 -26 7 -13 7 -25 0 -38 -7 -14 -7 -22 0 -26 8 -5 7
-11 -1 -21 -9 -11 -9 -17 0 -28 8 -10 9 -16 1 -21 -7 -4 -7 -12 0 -26 6 -11 8
-24 5 -30 -10 -15 -13 -59 -5 -64 4 -2 4 -24 0 -49 -4 -24 -3 -52 2 -60 6 -11
5 -16 -3 -16 -9 0 -9 -3 0 -14 9 -10 9 -16 1 -21 -6 -4 -7 -12 -3 -18 10 -15
10 -38 -1 -55 -4 -7 -3 -19 4 -27 7 -9 8 -15 0 -20 -7 -4 -7 -12 0 -26 8 -13
7 -25 0 -40 -8 -14 -8 -24 -1 -33 7 -9 7 -16 0 -23 -8 -8 -8 -13 0 -17 7 -4 7
-15 1 -31 -6 -15 -6 -27 1 -30 5 -4 7 -10 5 -14 -7 -10 -8 -81 -3 -106 2 -11
0 -26 -6 -32 -6 -9 -6 -18 2 -27 8 -10 9 -16 1 -21 -7 -4 -7 -12 0 -26 7 -13
7 -25 0 -38 -7 -14 -7 -22 0 -26 8 -5 7 -11 -1 -21 -9 -11 -9 -17 0 -28 8 -10
9 -16 1 -21 -7 -4 -7 -12 0 -26 7 -13 7 -25 0 -38 -7 -14 -7 -22 0 -26 8 -5 7
-11 -1 -21 -9 -11 -9 -17 0 -28 8 -10 9 -16 1 -21 -7 -4 -7 -12 0 -26 7 -13 7
-25 0 -38 -7 -14 -7 -22 0 -26 8 -5 7 -11 -1 -21 -9 -11 -9 -17 0 -28 8 -10 9
-16 1 -21 -7 -4 -7 -12 0 -26 6 -11 8 -24 5 -30 -10 -15 -13 -59 -5 -64 4 -2
4 -24 0 -49 -4 -24 -3 -52 2 -60 6 -11 5 -16 -3 -16 -9 0 -9 -3 0 -14 8 -10 9
-16 1 -21 -6 -3 -7 -12 -3 -18 10 -17 10 -40 -1 -54 -5 -8 -4 -18 3 -27 8 -10
9 -16 1 -21 -7 -4 -7 -12 0 -26 8 -13 7 -25 0 -40 -8 -14 -8 -24 -1 -33 7 -9
7 -16 0 -23 -8 -8 -8 -13 0 -17 7 -4 7 -15 1 -31 -6 -15 -6 -27 1 -30 5 -4 7
-10 5 -14 -7 -10 -8 -81 -3 -106 2 -11 0 -26 -6 -32 -6 -9 -6 -18 2 -27 8 -10
9 -16 1 -21 -7 -4 -7 -12 0 -26 7 -13 7 -25 0 -38 -7 -14 -7 -22 0 -26 8 -5 7
-11 -1 -21 -9 -11 -9 -17 0 -28 8 -10 9 -16 1 -21 -7 -4 -7 -12 0 -26 8 -13 7
-25 0 -40 -8 -15 -8 -24 0 -34 8 -9 8 -15 0 -20 -6 -4 -7 -12 -3 -18 10 -15
10 -38 -1 -55 -4 -7 -3 -19 4 -27 7 -9 8 -15 0 -20 -7 -4 -7 -12 0 -26 8 -13
7 -25 0 -40 -8 -15 -8 -24 0 -34 8 -9 8 -15 0 -20 -8 -5 -8 -10 0 -20 8 -10 8
-15 0 -20 -8 -5 -8 -10 0 -20 8 -10 8 -15 0 -20 -6 -4 -7 -12 -3 -18 10 -15
10 -38 -1 -55 -4 -7 -3 -19 4 -27 7 -9 8 -15 0 -20 -7 -4 -7 -12 0 -26 8 -13
7 -25 0 -40 -8 -15 -8 -24 0 -34 8 -9 8 -15 0 -20 -6 -4 -7 -12 -3 -18 10 -15
10 -38 -1 -55 -4 -7 -3 -19 4 -27 7 -9 8 -15 0 -20 -7 -4 -7 -12 0 -26 7 -13
7 -25 0 -38 -7 -14 -7 -22 0 -26 8 -5 7 -11 -1 -21 -9 -11 -9 -17 0 -28 8 -10
9 -16 1 -21 -7 -4 -7 -12 0 -26 6 -11 8 -24 5 -30 -10 -15 -13 -59 -5 -64 4
-2 4 -24 0 -49 -4 -24 -3 -52 2 -60 6 -11 5 -16 -3 -16 -7 0 -8 -5 -3 -12 5
-7 8 -24 7 -38 -7 -82 3 -156 37 -275 32 -111 97 -212 179 -277 105 -82 197
-110 351 -107 163 4 273 51 377 163 97 103 151 248 157 418 1 20 5 40 8 44 4
4 2 16 -4 27 -6 12 -7 22 -2 24 5 2 7 122 4 283 -3 154 -3 280 0 280 3 0 3 27
0 60 -3 33 -3 60 0 60 3 0 3 27 0 60 -3 33 -3 60 0 60 3 0 3 27 0 60 -3 33 -3
60 0 60 3 0 3 27 0 60 -3 33 -3 60 0 60 3 0 3 27 0 60 -3 33 -3 60 0 60 3 0 3
27 0 60 -3 33 -3 60 0 60 3 0 3 27 0 60 -3 33 -3 60 0 60 3 0 3 27 0 60 -3 33
-3 60 0 60 3 0 3 27 0 60 -3 33 -3 60 0 60 3 0 3 333 0 740 -3 407 -3 740 0
740 3 0 3 27 0 60 -3 33 -3 60 0 60 3 0 3 27 0 60 -3 33 -3 60 0 60 3 0 3 27
0 60 -3 33 -3 60 0 60 3 0 3 27 0 60 -3 33 -3 60 0 60 3 0 3 27 0 60 -3 33 -3
60 0 60 3 0 3 27 0 60 -3 33 -3 60 0 60 3 0 3 27 0 60 -3 33 -3 60 0 60 3 0 3
27 0 60 -3 33 -3 60 0 60 3 0 3 27 0 60 -3 33 -3 60 0 60 3 0 4 21 3 47 -2 27
-5 194 -7 373 -2 179 -6 337 -10 351 -3 14 -8 39 -10 55 -2 16 -8 42 -15 57
-6 16 -11 31 -11 33 0 3 -10 26 -21 52 -64 139 -196 247 -348 282 -46 11 -196
22 -203 15z"/>
<path d="M3715 6601 c-55 -26 -109 -86 -131 -146 -18 -48 -19 -102 -19 -1320
l0 -1270 26 -55 c15 -30 38 -67 52 -81 59 -62 169 -88 256 -62 113 33 174 113
189 245 9 82 7 2407 -2 2473 -14 95 -55 158 -134 207 -50 31 -180 36 -237 9z"/>
<path d="M6338 6574 c-100 -25 -168 -105 -186 -219 -3 -22 -6 -596 -6 -1275
l1 -1235 22 -56 c22 -58 74 -119 126 -147 21 -12 55 -17 116 -17 78 0 90 3
134 30 27 17 62 48 77 70 58 84 56 40 55 1401 l-2 1249 -24 53 c-54 120 -182
180 -313 146z"/>
<path d="M5028 5614 c-2 -1 -19 -6 -37 -9 -55 -10 -141 -57 -197 -108 -106
-96 -154 -201 -160 -342 -6 -158 35 -276 130 -371 168 -167 456 -191 646 -53
83 60 127 114 159 196 27 69 32 93 36 185 6 143 -40 260 -141 362 -98 98 -221
148 -361 145 -40 -1 -74 -3 -75 -5z"/>
</g>
</svg>
